<?xml version="1.0" encoding="UTF-8"?>
<svg id="Layer_1" data-name="Layer 1" xmlns="http://www.w3.org/2000/svg" viewBox="0 0 480 480">
  <defs>
    <style>
      .cls-1 {
        fill: #ee6adb;
        stroke-width: 0px;
      }
    </style>
  </defs>
  <path class="cls-1" d="m240,0h-104c-4.42,0-8,3.58-8,8v56H8c-4.42,0-8,3.58-8,8v400c0,4.42,3.58,8,8,8h232c4.42,0,8-3.58,8-8V8c0-4.42-3.58-8-8-8Zm-8,416h-88v-16h88v16ZM16,120h112v240H16V120Zm216-32h-88v-24h88v24ZM16,376h112v24H16v-24Zm128,8V104h88v280h-88ZM232,16v32h-88V16h88Zm-104,64v24H16v-24h112ZM16,416h112v48H16v-48Zm128,48v-32h88v32h-88Z"/>
  <path class="cls-1" d="m479.74,437.98l-96-368c-.54-2.06-1.87-3.82-3.71-4.9-1.84-1.07-4.03-1.36-6.09-.81l-120,32c-4.25,1.13-6.79,5.48-5.68,9.74l96,368c.54,2.06,1.88,3.82,3.72,4.89,1.84,1.07,4.03,1.36,6.09.8l120-32c4.24-1.13,6.78-5.48,5.68-9.73Zm-201.25-279.44l104.54-27.87,3.76,14.4-104.54,27.91-3.77-14.44Zm112.34,2.05l46.4,177.98-104.5,27.88-46.4-177.99,104.5-27.87Zm50.47,193.47l8.19,31.39-104.54,27.87-8.16-31.38,104.51-27.88Zm-71.02-272.26l8.71,33.4-104.54,27.86-8.7-33.38,104.54-27.88Zm-12.58,380.4l-8.71-33.4,104.54-27.88,8.7,33.38-104.54,27.89Z"/>
  <path class="cls-1" d="m104,144H40c-4.42,0-8,3.58-8,8v64c0,4.42,3.58,8,8,8h64c4.42,0,8-3.58,8-8v-64c0-4.42-3.58-8-8-8Zm-8,64h-48v-48h48v48Z"/>
</svg>