<?xml version="1.0" encoding="UTF-8"?>
<svg id="Layer_1" data-name="Layer 1" xmlns="http://www.w3.org/2000/svg" viewBox="0 0 448 406">
  <defs>
    <style>
      .cls-1 {
        fill: #ee6adb;
        fill-rule: evenodd;
        stroke-width: 0px;
      }
    </style>
  </defs>
  <path class="cls-1" d="m116.71,30.25c-8.8,9.31-14.58,23.92-12.75,45.06.38,4.4-2.88,8.28-7.28,8.66s-8.28-2.88-8.66-7.28c-2.16-24.86,4.59-44.25,17.06-57.44C117.46,6.17,134.69,0,152,0h246c.25,0,.5.01.76.04,8.14.77,20.12,4.07,30.28,11.65,10.47,7.82,18.96,20.23,18.96,38.31,0,19.1-6.85,31.96-16.38,39.9-9.21,7.68-20.14,10.1-27.62,10.1-8.77,0-18.49-3.05-26.15-8.89-7.82-5.96-13.85-15.16-13.85-27.11s4.57-19.8,11.7-25.15c6.78-5.09,15.14-6.85,22.3-6.85,4.42,0,8,3.58,8,8s-3.58,8-8,8c-4.84,0-9.48,1.24-12.7,3.65-2.87,2.15-5.3,5.72-5.3,12.35,0,6.04,2.9,10.85,7.55,14.39,4.8,3.66,11.08,5.61,16.45,5.61,4.52,0,11.59-1.57,17.38-6.4,5.47-4.56,10.62-12.7,10.62-27.6,0-12.32-5.5-20.24-12.54-25.49-7.19-5.37-15.99-7.88-21.86-8.51-13.63.04-24.32,2.17-32.42,6.87-7.92,4.6-14.17,12.12-18.1,24.71-4,12.83-5.51,30.79-3.6,55.66,1.9,24.78,7.15,55.94,16.3,94.91,8.1,33.4,15.98,83.78,13,126.16-1.48,21.12-5.72,41.16-14.71,56.14-9.28,15.48-23.69,25.54-44.07,25.54H49c-27.06,0-49-21.94-49-49s21.94-49,49-49h59c0-20.64-1.48-41.34-2.95-54.88-.74-6.77-1.48-12.23-2.03-15.99-.28-1.88-.74-4.76-.9-5.74-.77-4.35,2.14-8.5,6.49-9.27,4.35-.77,8.5,2.14,9.27,6.49.17,1.05.69,4.24.97,6.2.57,3.93,1.34,9.59,2.1,16.57,1.52,13.95,3.05,35.25,3.05,56.62h166c5.97,0,14.95,1.38,22.74,5.87,8.19,4.72,15.26,13.1,15.26,26.13,0,11.32-3.58,20.46-9.78,26.8-6.15,6.28-14.28,9.2-22.22,9.2-4.42,0-8-3.58-8-8s3.58-8,8-8c4.06,0,7.93-1.48,10.78-4.4,2.8-2.86,5.22-7.73,5.22-15.6,0-6.17-2.93-9.78-7.24-12.27-4.44-2.56-10.05-3.61-14.05-3.72-17.48,3.52-27.36,17.85-27.96,32.57-.59,14.3,7.64,29.02,28.08,33.42h23.18c14.02,0,23.56-6.44,30.35-17.77,7.09-11.82,11.05-28.91,12.47-49.04,2.82-40.1-4.69-88.71-12.6-121.3v-.06c-9.26-39.42-14.71-71.46-16.7-97.37-1.98-25.84-.57-46.08,4.28-61.64,3.52-11.28,8.86-20.16,15.96-26.82h-195.77c-13.61,0-26.39,4.83-35.28,14.25h0Zm142.2,359.75c-8.67-9.49-12.66-21.8-12.16-34.08.47-11.51,4.92-22.99,12.93-31.92H49c-18.23,0-33,14.77-33,33s14.77,33,33,33h209.91Z"/>
  <path class="cls-1" d="m83.5,93.22c-1.16-3.14-4.16-5.22-7.5-5.22s-6.34,2.08-7.5,5.22l-16.55,44.72-44.72,16.55c-3.14,1.16-5.22,4.16-5.22,7.5s2.08,6.34,5.22,7.5l44.72,16.55,16.55,44.72c1.16,3.14,4.16,5.22,7.5,5.22s6.34-2.08,7.5-5.22l16.55-44.72,44.72-16.55c3.14-1.16,5.22-4.16,5.22-7.5s-2.08-6.34-5.22-7.5l-44.72-16.55-16.55-44.72Zm-17.83,53.73l10.32-27.9,10.32,27.9c.81,2.19,2.54,3.92,4.73,4.73l27.9,10.32-27.9,10.32c-2.19.81-3.92,2.54-4.73,4.73l-10.32,27.9-10.32-27.9c-.81-2.19-2.54-3.92-4.73-4.73l-27.9-10.32,27.9-10.32c2.19-.81,3.92-2.54,4.73-4.73h0Z"/>
  <path class="cls-1" d="m224,156c3.35,0,6.34,2.08,7.5,5.22l14.39,38.88,38.88,14.39c3.14,1.16,5.22,4.16,5.22,7.5s-2.08,6.34-5.22,7.5l-38.88,14.39-14.39,38.88c-1.16,3.14-4.16,5.22-7.5,5.22s-6.34-2.08-7.5-5.22l-14.39-38.88-38.88-14.39c-3.14-1.16-5.22-4.16-5.22-7.5s2.08-6.34,5.22-7.5l38.88-14.39,14.39-38.88c1.16-3.14,4.16-5.22,7.5-5.22Zm0,31.05l-8.16,22.06c-.81,2.19-2.54,3.92-4.73,4.73l-22.06,8.16,22.06,8.16c2.19.81,3.92,2.54,4.73,4.73l8.16,22.06,8.16-22.06c.81-2.19,2.54-3.92,4.73-4.73l22.06-8.16-22.06-8.16c-2.19-.81-3.92-2.54-4.73-4.73l-8.16-22.06Z"/>
  <path class="cls-1" d="m195.5,53.22c-1.16-3.14-4.16-5.22-7.5-5.22s-6.34,2.08-7.5,5.22l-11.15,30.13-30.13,11.15c-3.14,1.16-5.22,4.16-5.22,7.5s2.08,6.34,5.22,7.5l30.13,11.15,11.15,30.13c1.16,3.14,4.16,5.22,7.5,5.22s6.34-2.08,7.5-5.22l11.15-30.13,30.13-11.15c3.14-1.16,5.22-4.16,5.22-7.5s-2.08-6.34-5.22-7.5l-30.13-11.15-11.15-30.13Zm-12.42,39.13l4.92-13.3,4.92,13.3c.81,2.19,2.54,3.92,4.73,4.73l13.3,4.92-13.3,4.92c-2.19.81-3.92,2.54-4.73,4.73l-4.92,13.3-4.92-13.3c-.81-2.19-2.54-3.92-4.73-4.73l-13.3-4.92,13.3-4.92c2.19-.81,3.92-2.54,4.73-4.73Z"/>
</svg>