<?xml version="1.0" encoding="UTF-8"?>
<svg id="Capa_1" data-name="Capa 1" xmlns="http://www.w3.org/2000/svg" viewBox="0 0 365.72 365.53">
  <defs>
    <style>
      .cls-1 {
        fill: #ee6adb;
        stroke-width: 0px;
      }
    </style>
  </defs>
  <path class="cls-1" d="m357.29,315.38c-.11-.11-.22-.22-.33-.33l-14.08-13.76-25.68-25.84-19.04-19.04,16.88-16.88c3.1-3.12,3.1-8.16,0-11.28l-18.24-18.24c-3.12-3.1-8.16-3.1-11.28,0l-6.56,6.56-26.96-30.16,106.88-95.68c1.6-1.44,2.55-3.46,2.64-5.6l3.84-76.72c.12-2.26-.72-4.47-2.32-6.08-1.61-1.6-3.82-2.44-6.08-2.32l-76.72,3.76c-2.14.09-4.16,1.04-5.6,2.64l-91.76,102.88L90.96,6.65c-1.44-1.6-3.46-2.55-5.6-2.64L8.64.25c-2.26-.12-4.47.72-6.08,2.32C.96,4.18.12,6.39.24,8.65l3.84,76.72c.09,2.14,1.04,4.16,2.64,5.6l107.04,96-26.88,29.68-6.56-6.56c-3.12-3.1-8.16-3.1-11.28,0l-18.24,18.24c-3.1,3.12-3.1,8.16,0,11.28l16.88,16.88-19.12,18.96-40,40c-11.44,11.49-11.41,30.08.08,41.52,5.48,5.46,12.9,8.54,20.64,8.56,7.77.03,15.23-3.06,20.72-8.56l58.72-58.72,16.88,16.88c3.12,3.1,8.16,3.1,11.28,0l18.24-18.24c3.1-3.12,3.1-8.16,0-11.28l-6.24-6.96,34-30.32,34,30.32-6.56,6.56c-3.1,3.12-3.1,8.16,0,11.28l18.24,18.24c3.12,3.1,8.16,3.1,11.28,0l16.88-16.88,19.04,19.04,25.76,25.76,13.92,13.92c11.37,11.56,29.96,11.7,41.52.33,11.56-11.37,11.7-29.96.33-41.52Zm-89.85-87.45l-14.08,14.08-30.08-30.08,16.56-14.8,27.6,30.8ZM19.44,80.97l-3.2-64.56,64.56,3.2,90.88,101.6-18.56,20.72-33.6-33.6c-3.36-2.87-8.41-2.48-11.28.87-2.57,3-2.57,7.41,0,10.41l34.64,34.32-18.4,20.72L19.44,80.97Zm19.12,264c-2.5,2.51-5.9,3.92-9.44,3.92-7.36-.55-12.88-6.95-12.33-14.31.22-2.94,1.41-5.73,3.37-7.93l8-8,18.72,18.48-8.32,7.84Zm19.52-19.52l-18.4-18.48,14.48-14.48,18.88,18.88-14.96,14.08Zm25.84-25.84l-18.88-18.88,13.84-12.96,18.88,18.88-13.84,12.96Zm47.2-2.16l-16.8-16.8-30.16-30.16-16.48-16.56,6.88-6.88,64,64-7.44,6.4Zm6-30.48l-14.08-14.08,133.6-133.6c3.36-2.87,3.75-7.92.87-11.28-2.87-3.36-7.92-3.75-11.28-.87-.31.27-.6.56-.87.87L111.76,241.61l-14.08-14.08,32.8-36.64L284.56,19.69l64.56-3.2-3.2,64.56-110.56,98.8-98.24,87.12Zm57.28-29.84l17.2-14.48,30.64,30.64-14.08,14.08-33.76-30.24Zm56,43.44l-16.24,17.28-6.88-6.88,64-64,6.88,6.88-16.88,16.88-30.88,29.84Zm16.96,5.68l19.52-18.48,13.36,13.36-18.88,18.88-14-13.76Zm39.2,39.2l-14.48-14.48,18.88-18.88,14.48,14.48-18.88,18.88Zm39.04,19.92l-.64-.4c-5.29,5.04-13.6,5.04-18.88,0l-8-8,19.28-18.32,8,8c5.17,5.13,5.28,13.46.24,18.72Z"/>
</svg>