<?xml version="1.0" encoding="UTF-8"?>
<svg id="Layer_1" data-name="Layer 1" xmlns="http://www.w3.org/2000/svg" xmlns:xlink="http://www.w3.org/1999/xlink" viewBox="0 0 858.77 203.77">
  <defs>
    <style>
      .cls-1 {
        fill: url(#linear-gradient);
      }

      .cls-1, .cls-2, .cls-3, .cls-4, .cls-5, .cls-6, .cls-7 {
        stroke-width: 0px;
      }

      .cls-2 {
        fill: url(#linear-gradient-6);
      }

      .cls-3 {
        fill: url(#linear-gradient-5);
      }

      .cls-4 {
        fill: #fff;
      }

      .cls-5 {
        fill: url(#linear-gradient-2);
      }

      .cls-6 {
        fill: url(#linear-gradient-3);
      }

      .cls-7 {
        fill: url(#linear-gradient-4);
      }
    </style>
    <linearGradient id="linear-gradient" x1="121.71" y1="204.21" x2="121.71" y2="84.24" gradientTransform="translate(15.18 321.34) scale(1.51 -1.51)" gradientUnits="userSpaceOnUse">
      <stop offset="0" stop-color="#ff5582"/>
      <stop offset="1" stop-color="#ee6adb"/>
    </linearGradient>
    <linearGradient id="linear-gradient-2" x1="96.2" y1="204.21" x2="96.2" y2="84.24" gradientTransform="translate(15.18 321.34) scale(1.51 -1.51)" gradientUnits="userSpaceOnUse">
      <stop offset="0" stop-color="#00ffd3"/>
      <stop offset="1" stop-color="#ffcb76"/>
    </linearGradient>
    <linearGradient id="linear-gradient-3" x1="67.72" y1="204.21" x2="67.72" y2="84.24" gradientTransform="translate(15.18 321.34) scale(1.51 -1.51)" gradientUnits="userSpaceOnUse">
      <stop offset="0" stop-color="#ff5582"/>
      <stop offset="1" stop-color="#ee6adb"/>
    </linearGradient>
    <linearGradient id="linear-gradient-4" x1="96.62" y1="13.82" x2="96.62" y2="194.49" gradientUnits="userSpaceOnUse">
      <stop offset="0" stop-color="#00ffd3"/>
      <stop offset=".75" stop-color="#ee6adb"/>
    </linearGradient>
    <linearGradient id="linear-gradient-5" x1="104.43" y1="204.21" x2="104.43" y2="84.23" gradientTransform="translate(5.76 309.16) rotate(4.24) scale(1.51 -1.51)" gradientUnits="userSpaceOnUse">
      <stop offset="0" stop-color="#ff5582"/>
      <stop offset="1" stop-color="#ee6adb"/>
    </linearGradient>
    <linearGradient id="linear-gradient-6" x1="-.65" y1="204.21" x2="-.65" y2="84.23" gradientTransform="translate(4 320.81) rotate(4.24) scale(1.51 -1.51)" gradientUnits="userSpaceOnUse">
      <stop offset="0" stop-color="#ff5582"/>
      <stop offset="1" stop-color="#ee6adb"/>
    </linearGradient>
  </defs>
  <path class="cls-1" d="m203.06,115.92c-.6-2.1-2.52-3.56-4.71-3.57-.86.04-1.7.26-2.46.66-1.13.6-3.15,3.93-1.95,8.2.32,1.15,1.79,2.01,2.98,2.28,1.3.35,2.68.17,3.84-.5,1.11-.67,1.92-1.73,2.29-2.97.36-1.35.37-2.76.01-4.11h0Z"/>
  <path class="cls-5" d="m156.25,9.36c1.63,2.05,3.43,4.2,5.67,5.61,2.68,1.68,6.8-1.15,5.62-4.31-1.81-4.84-6.96-9.44-12.07-10.61-1.63-.37-3.67,1.14-2.97,2.96.93,2.29,2.19,4.43,3.75,6.35h0Z"/>
  <path class="cls-6" d="m148.78,188.06c-5.19-2.52-10.66-2.32-16.32-2.79-6.23-.52-10.52-4.07-16.04-6.52-5.25-2.22-10.81-3.61-16.49-4.11-3.55-.38-11.25-.02-15.25.2-1.82.1-3.21,1.66-3.11,3.48.02.34.09.68.21,1,1.11,2.87,4.49,6.48,12.47,8.76,7.51,2.14,10.13,11.6,17.58,14.47,6.9,2.66,25.17.74,34.09-3.95,5.46-2.87,10.63-6.77,2.85-10.55h0Z"/>
  <path class="cls-7" d="m184.71,132.77h0c-2.28,3.52-6.81,7.13-9.46,7.99-1.23.4-4.5,1.43-5.72.43-1.36-1.11.89-4.52,1.56-5.7,2.37-4.17,5.66-7.72,8.44-11.6,2.8-4,5.11-8.32,6.86-12.88,7.26-18.2,9.08-40.56,3.88-59.51-2.56-9.34-7.78-18.35-15.94-24.02-2.17-1.52-7.39-2.11-5.58,3,1.59,4.46,3.66,10.9.95,15.25-2.18,3.5-5.97,3.81-9.12,1.36-6.93-5.4-8.41-15.63-13.32-22.58-11.41-16.13-31.97-20.38-50.59-17.72-2.18.31-10.78,1.82-12.9,2.3-8.98,2-17.19,3.34-32.59,3.06-6.07-.11-12.29.52-18.05,2.54-5.13,1.72-9.73,4.73-13.35,8.75-1.95,2.21-3.65,4.63-5.76,6.7-2.11,2.07-3.86,3.85-8.05,4.39-.88-.3-1.84.17-2.14,1.05-.11.31-.12.65-.04.97,1.2,3.75,4.87,4.82,8.45,5.13,2.09.18,4.31-.05,6.33.63,2.99,1.01,2.93,3.54,2.13,5.95-2.74,3.84-14.89,23.11-17.86,39.5C.92,98.28-.5,108.93.17,119.59c.25,3.99,2.05,20.51,7.03,31.16.9,1.93,4.06,2.33,5.46.7,6.68-7.78,16.25,6.5,17.95,12,2.41,7.77,1.43,16.26,5.16,23.68,3.99,7.95,12.47,10.37,20.54,12.15,9.98,2.19,20.18,3.93,30.25,1.21,3.84-1.04,3.29-6.01.44-7.27-.67-.74-1.64-1.13-2.64-1.05-16.05.54-23.12-13.6-27.99-26.56-2.51-6.87-5.61-13.5-9.27-19.84-5.25-8.9-5.11-21.27-4-24.78,1.52-4.8,4.2-9.9,8.35-12.96-.09.77-.16,1.53-.21,2.3-2.9,9.12.35,20.23,5.54,27.73,1.01,1.59,3.12,2.07,4.72,1.06.68-.43,1.19-1.09,1.43-1.86,1.3-3.46,1.19-7.06.91-10.69-.28-3.62-.74-7.4,1.43-10.56,1.96-2.85,5-4.84,7.4-7.28,2.5-2.67,4.61-5.68,6.27-8.94,3.38-6.21,6.82-12.77,13.81-15.54,1.84-.71,3.81-1.03,5.78-.92,3.04.16,5.38,2.76,5.22,5.8-.07,1.4-.67,2.71-1.68,3.68-9.43,9.23-14.63,22.22-15.2,35.5-.4,9.21,1.96,17.51,8.42,24.26,3.15,3.18,6.62,6.02,10.35,8.49,7.56,5.19,19,7.87,24.08,8.77,8.69,1.62,17.64,1.16,26.12-1.35,8.7-2.68,16.05-7.86,22.78-13.85,6.06-5.39,11.34-11.99,11.55-20.42.1-3.94-4.1-3.54-5.45-1.46Zm-155.7-8.01c-.95,3.26-4.9,5.8-7.74,3.55-4.32-3.44-1.86-10.35.46-12.97,2.11-2.38,6.79-1.22,7.37,1.94.55,2.47.52,5.03-.09,7.48Zm51.74-70.02c-4.87,2.79-10.37,4.21-15.22,7.04-4.22,2.59-7.99,5.85-11.17,9.65-3.25,3.84-6.3,7.85-9.14,12.01-2.9,4.09-5.65,8.4-10.18,10.85-3.24,1.75-6.74,1.37-6.75-1.72,0-13.03,7.63-26.82,15.37-37.17,3.75-5.02,8.87-9.42,15.42-9.82,3.28-.2,6.05.94,9.02,2.14,3.15,1.38,6.67,1.63,9.98.73,3.78-1.02,6.04,4.34,2.66,6.28Zm80.77,67c-1.7,7.59-5.41,15.19-11.58,20.04-2.94,2.31-9.87,6.49-15.46,6.4-20.87-.34-23.73-15.41-24.38-19.43-1.38-8.59,1.57-19.57,9.39-23.7,5.47-2.89,4.48,4.54,4.46,4.57.29,1.63.7,3.16,2.21,4.37,2.13,1.52,5.02,1.41,7.04-.26,2.34-2,2.22-5.93,2.35-8.72.15-3.65,0-7.3-.45-10.93-1.75-14.24-11.33-25.74-13.94-39.73-.55-2.92,3.14-4.96,4.98-2.65,1.29.83,6.64,10.26,8.76,13.5,4.05,6.26,8.81,12.03,14.17,17.21,5.33,5.12,9.98,10.01,12.33,17.18,1.83,5.59,1.83,14.48.11,22.16Zm1.72-47.96c-.85,1.63-2.86,2.26-4.5,1.41-2.99-1.47-5.56-4.44-7.6-7.03-1.62-2.06-4.16-6.43-3.88-9.11.2-1.81,1.67-2.4,3.52-2.01,4.07.85,8.16,4.78,12.46,13.66.5.96.5,2.11,0,3.07Z"/>
  <ellipse class="cls-3" cx="172.3" cy="188.8" rx="7.46" ry="6.01" transform="translate(-13.5 13.27) rotate(-4.24)"/>
  <ellipse class="cls-2" cx="14.17" cy="170.67" rx="6.18" ry="6.43" transform="translate(-12.59 1.52) rotate(-4.24)"/>
  <g>
    <path class="cls-4" d="m232.42,49.65h19.69v92.07h52.08v16.27h-71.77V49.65Z"/>
    <path class="cls-4" d="m327.98,155.59c-6.56-3.15-11.65-7.7-15.27-13.64-3.62-5.94-5.42-12.99-5.42-21.16s1.78-14.9,5.35-20.85c3.56-5.94,8.65-10.54,15.27-13.79,6.61-3.26,14.26-4.88,22.94-4.88s16.3,1.63,22.86,4.88c6.56,3.25,11.65,7.85,15.27,13.79,3.62,5.94,5.42,12.89,5.42,20.85s-1.81,15.22-5.42,21.16c-3.62,5.94-8.71,10.49-15.27,13.64-6.56,3.15-14.18,4.73-22.86,4.73s-16.3-1.58-22.86-4.73Zm39.91-17.36c4.24-4.49,6.36-10.31,6.36-17.44,0-7.54-2.09-13.46-6.28-17.75-4.19-4.29-9.9-6.43-17.13-6.43s-12.94,2.15-17.13,6.43c-4.19,4.29-6.28,10.21-6.28,17.75,0,7.13,2.12,12.94,6.35,17.44,4.24,4.5,9.92,6.74,17.05,6.74s12.81-2.25,17.05-6.74Z"/>
    <path class="cls-4" d="m409.89,83.59h18.91v11.94c3-4.03,7.26-7.03,12.79-8.99,5.53-1.96,11.86-2.94,18.99-2.94v14.88c-7.54,0-14.08,1.16-19.61,3.49-5.53,2.33-9.38,5.97-11.55,10.93v45.1h-19.53v-74.4Z"/>
    <path class="cls-4" d="m477.32,149.93c-8.06-6.92-12.09-16.58-12.09-28.99s3.56-21.85,10.69-28.98c7.13-7.13,17.31-10.7,30.54-10.7,8.68,0,16.09,1.65,22.24,4.96,6.15,3.31,10.77,7.83,13.87,13.56,3.1,5.74,4.65,12.27,4.65,19.61v8.99h-63.4c1.34,11.06,10.95,16.58,28.83,16.58,4.75,0,9.61-.41,14.57-1.24,4.96-.83,9.3-1.96,13.02-3.41v15.04c-3.51,1.45-8.04,2.63-13.56,3.56-5.53.93-11.03,1.4-16.51,1.4-13.85,0-24.8-3.46-32.86-10.38Zm51.46-34.88c-.21-5.89-2.3-10.44-6.28-13.64-3.98-3.2-9.43-4.8-16.35-4.8s-12.19,1.65-16.12,4.96c-3.93,3.31-5.99,7.8-6.2,13.48h44.95Z"/>
    <path class="cls-4" d="m562.72,43.45h19.53v114.54h-19.53V43.45Z"/>
    <path class="cls-4" d="m618.44,155.59c-6.56-3.15-11.65-7.7-15.27-13.64-3.62-5.94-5.42-12.99-5.42-21.16s1.78-14.9,5.35-20.85c3.56-5.94,8.65-10.54,15.27-13.79,6.61-3.26,14.26-4.88,22.94-4.88s16.3,1.63,22.86,4.88c6.56,3.25,11.65,7.85,15.27,13.79,3.62,5.94,5.42,12.89,5.42,20.85s-1.81,15.22-5.42,21.16c-3.62,5.94-8.71,10.49-15.27,13.64-6.56,3.15-14.18,4.73-22.86,4.73s-16.3-1.58-22.86-4.73Zm39.91-17.36c4.24-4.49,6.36-10.31,6.36-17.44,0-7.54-2.09-13.46-6.28-17.75-4.19-4.29-9.9-6.43-17.13-6.43s-12.94,2.15-17.13,6.43c-4.19,4.29-6.28,10.21-6.28,17.75,0,7.13,2.12,12.94,6.36,17.44,4.24,4.5,9.92,6.74,17.05,6.74s12.81-2.25,17.05-6.74Z"/>
    <path class="cls-4" d="m715.63,155.67c-6.56-3.1-11.65-7.59-15.27-13.48-3.62-5.89-5.42-12.97-5.42-21.24s1.83-15.37,5.5-21.31c3.67-5.94,8.78-10.49,15.35-13.64,6.56-3.15,14.23-4.73,23.02-4.73,11.57,0,20.82,2.27,27.74,6.82v15.65c-6.72-4.75-15.29-7.13-25.73-7.13-7.96,0-14.29,1.99-18.99,5.97-4.7,3.98-7.05,10.1-7.05,18.37s2.35,14.21,7.05,18.13c4.7,3.93,10.93,5.89,18.68,5.89,10.44,0,19.43-2.48,26.97-7.44v15.5c-3.72,2.48-7.93,4.32-12.63,5.5-4.7,1.19-10.15,1.78-16.35,1.78-8.68,0-16.3-1.55-22.86-4.65Z"/>
    <path class="cls-4" d="m782.97,43.45h19.53v72.85l29.6-32.71h22.94l-33.17,36.42,36.89,37.97h-22.94l-33.33-34.41v34.41h-19.53V43.45Z"/>
  </g>
</svg>